<svg xmlns="http://www.w3.org/2000/svg" viewBox="0 0 679.5 679.5" enable-background="new 0 0 679.5 679.5"><style type="text/css">.st0{fill:#2775C9;} .st1{fill:#BCDDF8;}</style><circle cx="339.8" cy="339.8" r="339.8" class="st0"/><path d="M339.8 656.7c62.7 0 124-18.6 176.1-53.4 52.1-34.8 92.8-84.3 116.7-142.2 24-57.9 30.3-121.6 18-183.1s-42.4-118-86.7-162.3C519.6 71.4 463.1 41.2 401.6 29c-61.5-12.2-125.2-6-183.1 18-57.9 24-107.4 64.6-142.2 116.7-34.8 52.1-53.4 113.4-53.4 176.1 0 84.1 33.4 164.7 92.8 224.1 59.4 59.4 140 92.8 224.1 92.8z" class="st1"/><path d="M428.2 386.9c0-46.2-28.1-61.8-82.5-69.3-40.2-5.8-47.9-15.3-47.9-34 0-18.8 13.6-30.4 39.6-30.4 23.7 0 37.4 8.3 43 27.3.6 2.1 1.8 3.9 3.6 5.2 1.7 1.3 3.8 2.1 6 2.1h20.8c1.4 0 2.7-.2 3.9-.8 1.2-.6 2.3-1.4 3.2-2.4.9-1 1.5-2.2 1.9-3.5.4-1.3.4-2.7.2-4-6.6-30.2-26.9-48.3-58.8-54v-31.8c0-2.6-1-5.1-2.9-7-1.9-1.9-4.4-2.9-7-2.9h-19.8c-2.6 0-5.1 1-7 2.9-1.9 1.9-2.9 4.4-2.9 7V222c-39.6 5.5-64.6 31.7-64.6 65.2 0 43.4 26.4 60.2 81.6 67.7 37.6 6.1 48.3 14.3 48.3 35.6s-18.2 35.7-43.8 35.7c-34.5 0-46.2-15.1-50.1-34.7-.5-2.3-1.7-4.3-3.4-5.7-1.8-1.5-4-2.3-6.3-2.3h-22.6c-1.3 0-2.7.3-3.9.8-1.2.6-2.3 1.4-3.2 2.4-.9 1-1.5 2.2-1.9 3.5-.4 1.3-.4 2.7-.2 4 5.7 33 26.9 57.2 70.1 63v31.3c0 2.6 1 5.1 2.9 7 1.9 1.9 4.4 2.9 7 2.9h19.8c2.6 0 5.1-1 7-2.9 1.9-1.9 2.9-4.4 2.9-7V457c40.9-6.4 67-34.7 67-70.1zM273.4 525.9c-38.2-13.9-71.1-39.3-94.4-72.5s-35.8-72.9-35.8-113.5c0-40.6 12.5-80.3 35.8-113.5 23.3-33.3 56.2-58.6 94.4-72.5 2.4-1.1 4.5-2.8 6-5s2.4-4.8 2.5-7.5v-18.5c.2-1.6-.1-3.3-.8-4.8-.7-1.5-1.7-2.8-3.1-3.7-1.3-1-2.9-1.5-4.5-1.7-1.6-.2-3.3.1-4.8.8-48 15.3-90 45.5-119.7 86.2s-45.8 89.8-45.8 140.3 16 99.6 45.8 140.3 71.7 70.9 119.7 86.2c1.5.7 3.1 1 4.8.8 1.6-.2 3.2-.7 4.5-1.7 1.3-1 2.4-2.2 3.1-3.7.7-1.5 1-3.1.8-4.8v-18.5c-.1-2.7-1-5.3-2.5-7.5-1.4-2.4-3.5-4.2-6-5.2zM414 113.3c-1.5-.7-3.1-1-4.8-.8-1.6.2-3.2.7-4.5 1.7-1.3 1-2.4 2.2-3.1 3.7-.7 1.5-1 3.1-.8 4.8v18.5c.1 2.7 1 5.3 2.5 7.5s3.6 3.9 6 5c38.2 13.9 71.1 39.3 94.4 72.5 23.3 33.3 35.8 72.9 35.8 113.5 0 40.6-12.5 80.3-35.8 113.5-23.3 33.3-56.2 58.6-94.4 72.5-2.5 1-4.7 2.7-6.2 4.9s-2.3 4.9-2.3 7.6v18.5c-.2 1.6.1 3.3.8 4.8.7 1.5 1.7 2.8 3.1 3.7 1.3 1 2.9 1.5 4.5 1.7 1.6.2 3.3-.1 4.8-.8 48-15.3 90-45.5 119.7-86.2 29.8-40.7 45.8-89.8 45.8-140.3s-16-99.6-45.8-140.3c-29.7-40.5-71.6-70.7-119.7-86z" class="st0"/></svg>